<svg width="221" height="29" viewBox="0 0 221 29" fill="none" xmlns="http://www.w3.org/2000/svg">
<path d="M44.4652 21.923C41.2534 21.923 38.5645 20.9241 36.3987 18.9262C34.2329 16.9283 33.15 14.4343 33.15 11.4443C33.15 8.50858 34.2329 6.035 36.3987 4.02351C38.5645 2.02562 41.2534 1.02667 44.4652 1.02667C47.6918 1.02667 50.4617 1.95766 52.7748 3.81965L49.7692 6.85726C48.2222 5.74279 46.4542 5.18555 44.4652 5.18555C42.432 5.19914 40.7893 5.79036 39.5369 6.95919C38.2993 8.11444 37.6805 9.59587 37.6805 11.4035C37.6805 13.347 38.3067 14.8896 39.559 16.0313C40.8114 17.1729 42.4541 17.7437 44.4873 17.7437C46.1227 17.7437 47.3751 17.4515 48.2443 16.8671V13.2791L45.2387 13.2994V9.3852H52.7748V19.1504C50.4764 20.9988 47.7066 21.923 44.4652 21.923ZM60.8855 7.97852V9.52791C61.9758 8.50858 63.2944 7.99891 64.8414 7.99891C65.3276 7.99891 65.7917 8.03289 66.2337 8.10084L65.5707 11.9539C65.0845 11.5462 64.3847 11.3287 63.4712 11.3016C62.4399 11.3695 61.578 12.0559 60.8855 13.3606V21.923H56.6644V8.40664L60.8855 7.97852ZM75.8472 22.0657C73.652 22.0657 71.8177 21.3862 70.3443 20.027C68.8857 18.6679 68.1564 16.9826 68.1564 14.9712C68.1564 12.9461 68.8857 11.254 70.3443 9.89487C71.8177 8.53576 73.652 7.8562 75.8472 7.8562C78.0425 7.8562 79.8768 8.53576 81.3501 9.89487C82.8235 11.254 83.5601 12.9461 83.5601 14.9712C83.5601 16.9962 82.8235 18.6815 81.3501 20.027C79.8768 21.3862 78.0425 22.0657 75.8472 22.0657ZM75.8472 18.7019C76.9817 18.7019 77.9099 18.3417 78.6318 17.6214C79.3538 16.9147 79.7147 16.0313 79.7147 14.9712C79.7147 13.911 79.3538 13.0276 78.6318 12.3209C77.9099 11.6006 76.9743 11.2404 75.8251 11.2404C74.6907 11.2404 73.7625 11.6006 73.0405 12.3209C72.3333 13.0276 71.9797 13.911 71.9797 14.9712C71.9797 16.0313 72.3333 16.9147 73.0405 17.6214C73.7625 18.3417 74.698 18.7019 75.8472 18.7019ZM95.5383 16.9894V7.97852H99.7594V21.923H95.5383V20.659C94.5217 21.5017 93.3136 21.923 91.9139 21.923C89.9986 21.923 88.54 21.3862 87.5381 20.3125C86.5215 19.2388 86.0132 18.0088 86.0132 16.6225V7.97852H90.2564V15.6439C90.2564 16.5681 90.5069 17.2884 91.0078 17.8049C91.5088 18.3214 92.2675 18.5932 93.2841 18.6204C94.1681 18.566 94.9195 18.0224 95.5383 16.9894ZM107.583 27.7944L103.362 27.774V8.40664L107.583 7.97852V9.09979C108.717 8.35228 109.83 7.97852 110.92 7.97852C113.233 7.97852 115.067 8.67847 116.423 10.0784C117.793 11.4646 118.478 13.0888 118.478 14.9508C118.478 16.8127 117.793 18.4369 116.423 19.8232C115.067 21.2231 113.233 21.923 110.92 21.923C109.402 21.8279 108.29 21.4473 107.583 20.7813V27.7944ZM107.583 13.6868V15.9497C107.789 17.5127 108.85 18.4301 110.765 18.7019C113.181 18.5252 114.544 17.37 114.854 15.2362C114.751 12.6267 113.388 11.2744 110.765 11.1792C108.85 11.4646 107.789 12.3005 107.583 13.6868ZM128.313 22.0657C126.117 22.0657 124.29 21.3862 122.832 20.027C121.358 18.6679 120.622 16.9826 120.622 14.9712C120.622 12.9461 121.358 11.254 122.832 9.89487C124.29 8.53576 126.117 7.8562 128.313 7.8562C130.508 7.8562 132.342 8.53576 133.816 9.89487C135.289 11.254 136.026 12.9461 136.026 14.9712C136.026 16.9962 135.289 18.6815 133.816 20.027C132.342 21.3862 130.508 22.0657 128.313 22.0657ZM128.313 18.7019C129.462 18.7019 130.39 18.3417 131.097 17.6214C131.819 16.9147 132.18 16.0313 132.18 14.9712C132.18 13.911 131.819 13.0276 131.097 12.3209C130.39 11.6006 129.454 11.2404 128.291 11.2404C127.156 11.2404 126.228 11.6006 125.506 12.3209C124.799 13.0276 124.445 13.911 124.445 14.9712C124.445 16.0313 124.799 16.9147 125.506 17.6214C126.228 18.3417 127.163 18.7019 128.313 18.7019ZM143.075 13.014V21.923H138.832V8.40664L143.075 7.97852V9.22211C144.018 8.40664 145.226 7.99891 146.7 7.99891C148.6 7.99891 150.059 8.52896 151.076 9.58907C152.181 8.52896 153.838 7.99891 156.048 7.99891C157.963 7.99891 159.429 8.52896 160.446 9.58907C161.448 10.6628 161.949 11.8996 161.949 13.2994V21.923H157.728V14.2576C157.728 13.3334 157.499 12.6131 157.043 12.0966C156.586 11.5938 155.849 11.3287 154.833 11.3016C153.993 11.3559 153.271 11.8656 152.667 12.8306C152.608 13.116 152.578 13.4082 152.578 13.7072V21.923H148.357V14.2576C148.357 13.3334 148.129 12.6131 147.672 12.0966C147.215 11.5938 146.479 11.3287 145.462 11.3016C144.534 11.3559 143.738 11.9267 143.075 13.014ZM167.629 12.0355L165.971 9.67062C167.886 8.55615 170.104 7.99891 172.623 7.99891C174.435 7.99891 175.864 8.46101 176.911 9.3852C177.971 10.323 178.502 11.7161 178.502 13.5645V21.923H174.281V20.8221C173.043 21.556 171.931 21.923 170.944 21.923C168.94 21.923 167.43 21.5289 166.413 20.7406C165.411 19.9523 164.91 18.865 164.91 17.4787C164.91 16.174 165.389 15.0119 166.347 13.9926C167.29 12.9733 168.822 12.4636 170.944 12.4636C171.931 12.4636 173.043 12.7422 174.281 13.2994V12.8713C174.251 11.852 173.441 11.2948 171.85 11.1996C170.037 11.1996 168.63 11.4782 167.629 12.0355ZM174.281 17.7437V16.174C173.883 15.4536 172.925 15.0935 171.408 15.0935C169.595 15.2837 168.638 15.9361 168.535 17.0506C168.638 18.1515 169.595 18.7495 171.408 18.8446C172.925 18.8446 173.883 18.4777 174.281 17.7437ZM186.524 13.0752V21.923H182.281V8.40664L186.524 7.97852V9.2425C187.541 8.41344 188.749 7.99891 190.148 7.99891C192.064 7.99891 193.522 8.52896 194.524 9.58907C195.526 10.6628 196.027 11.8996 196.027 13.2994V21.923H191.806V14.2576C191.806 13.3334 191.555 12.6131 191.055 12.0966C190.539 11.5938 189.773 11.3287 188.756 11.3016C187.887 11.3559 187.143 11.9471 186.524 13.0752ZM203.806 21.923H199.585V7.97852H203.806V21.923ZM199.43 4.6555C199.43 5.21273 199.629 5.67483 200.027 6.04179C200.44 6.40875 201 6.59223 201.707 6.59223C202.399 6.59223 202.952 6.40875 203.364 6.04179C203.762 5.67483 203.961 5.21273 203.961 4.6555C203.961 4.09826 203.762 3.62937 203.364 3.24882C202.952 2.86827 202.384 2.67799 201.663 2.67799C200.985 2.67799 200.44 2.86827 200.027 3.24882C199.629 3.62937 199.43 4.09826 199.43 4.6555ZM209.442 12.0355L207.784 9.67062C209.7 8.55615 211.917 7.99891 214.436 7.99891C216.249 7.99891 217.685 8.46101 218.746 9.3852C219.792 10.323 220.315 11.7161 220.315 13.5645V21.923H216.094V20.8221C214.871 21.556 213.766 21.923 212.779 21.923C210.76 21.923 209.25 21.5289 208.248 20.7406C207.232 19.9523 206.723 18.865 206.723 17.4787C206.723 16.174 207.202 15.0119 208.16 13.9926C209.103 12.9733 210.642 12.4636 212.779 12.4636C213.751 12.4636 214.856 12.7422 216.094 13.2994V12.8713C216.079 11.852 215.276 11.2948 213.685 11.1996C211.873 11.1996 210.458 11.4782 209.442 12.0355ZM216.094 17.7437V16.174C215.696 15.4536 214.738 15.0935 213.221 15.0935C211.409 15.2837 210.451 15.9361 210.348 17.0506C210.451 18.1515 211.409 18.7495 213.221 18.8446C214.738 18.8446 215.696 18.4777 216.094 17.7437Z" fill="#FD2D01"/>
<path d="M15.0682 24.5645C18.4435 24.5645 21.6078 23.4607 23.9886 21.4328C26.3693 19.405 27.6652 16.7097 27.6652 13.8347C27.6652 10.9597 26.3693 8.26444 23.9886 6.23656C21.6078 4.20868 18.4435 3.1049 15.0682 3.1049C11.6929 3.1049 8.5286 4.20868 6.14783 6.23656C3.76705 8.26444 2.47119 10.9597 2.47119 13.8347C2.47119 16.7097 3.76705 19.405 6.14783 21.4328C8.5286 23.4607 11.6929 24.5645 15.0682 24.5645ZM15.7915 22.742C15.5504 22.7677 15.3093 22.7676 15.0682 22.7676C14.7367 22.7676 14.4052 22.742 14.0737 22.7163C12.9888 21.2788 12.1751 19.7387 11.6929 18.1215H17.0271C17.2079 18.5065 17.5394 18.8659 17.9311 19.0969C17.4188 20.3804 16.6956 21.5869 15.7915 22.742V22.742ZM18.6544 22.2286C19.227 21.3302 19.6791 20.4317 20.0407 19.482C20.9146 19.3279 21.6078 18.8146 21.9393 18.1215H24.2598C23.0543 19.9954 21.0352 21.4585 18.6544 22.2286ZM25.5255 13.8347C25.5255 14.6818 25.3748 15.5032 25.1337 16.299H21.879C21.6982 15.9653 21.3968 15.6572 21.0352 15.4262C21.0955 14.8615 21.1256 14.2968 21.1256 13.732C21.1256 12.9363 21.0653 12.1405 20.9448 11.3704H25.1036C25.405 12.1405 25.5255 12.9876 25.5255 13.8347V13.8347ZM24.2598 9.54791H20.5831C20.1914 8.1361 19.6188 6.80129 18.8352 5.51782C21.1256 6.26223 23.0543 7.72539 24.2598 9.54791ZM19.0161 13.732C19.0161 14.1684 18.9859 14.6048 18.9558 15.0412C18.112 15.1952 17.4188 15.6572 17.0873 16.299H11.271C11.1505 15.5289 11.0601 14.7331 11.0601 13.963C11.0601 13.4753 11.0902 12.9876 11.1505 12.4999C11.934 12.3715 12.5669 11.9352 12.9586 11.3704H18.8352C18.9558 12.1405 19.0161 12.9363 19.0161 13.732V13.732ZM14.2846 4.95309C14.5559 4.92742 14.8271 4.92742 15.0682 4.92742C15.3696 4.92742 15.6709 4.92742 15.9723 4.95309C17.0572 6.39058 17.8709 7.93074 18.3531 9.54791H13.1093C12.9285 9.11153 12.597 8.72649 12.1751 8.44413C12.7176 7.212 13.4107 6.05688 14.2846 4.95309ZM11.4217 5.46648C10.9094 6.2879 10.4573 7.16066 10.0957 8.03342C9.16147 8.18743 8.40805 8.77783 8.10669 9.52224H5.90674C7.08206 7.69972 9.04092 6.23656 11.4217 5.46648ZM4.61088 13.8347C4.61088 12.9876 4.76156 12.1405 5.03278 11.3704H8.31765C8.49847 11.6528 8.76969 11.9095 9.07106 12.1149C9.01079 12.7309 8.95051 13.347 8.95051 13.963C8.95051 14.7588 9.01078 15.5289 9.13133 16.299H5.03278C4.73142 15.5032 4.61088 14.6818 4.61088 13.8347ZM9.49297 18.0958C9.88474 19.482 10.4573 20.8424 11.2409 22.1259C8.95051 21.3558 7.05192 19.9183 5.8766 18.0958H9.49297Z" fill="#FFD7D7"/>
</svg>
