<svg width="18" height="18" viewBox="0 0 18 18" fill="none" xmlns="http://www.w3.org/2000/svg">
<path d="M8.63819 15.8597C10.5731 15.8597 12.3871 15.1168 13.752 13.7519C15.1168 12.3871 15.8597 10.5731 15.8597 8.63816C15.8597 6.70321 15.1168 4.8892 13.752 3.52437C12.3871 2.15954 10.5731 1.41666 8.63819 1.41666C6.70324 1.41666 4.88923 2.15954 3.5244 3.52437C2.15957 4.8892 1.41669 6.70321 1.41669 8.63816C1.41669 10.5731 2.15957 12.3871 3.5244 13.7519C4.88923 15.1168 6.70324 15.8597 8.63819 15.8597ZM9.05282 14.633C8.91461 14.6503 8.7764 14.6503 8.63819 14.6503C8.44815 14.6503 8.25811 14.633 8.06807 14.6158C7.44612 13.6483 6.97966 12.6117 6.70324 11.5233H9.76115C9.8648 11.7825 10.0548 12.0243 10.2794 12.1798C9.98574 13.0436 9.57111 13.8556 9.05282 14.633V14.633ZM10.6941 14.2875C11.0223 13.6828 11.2815 13.0782 11.4888 12.4389C11.9898 12.3353 12.3871 11.9898 12.5772 11.5233H13.9075C13.2164 12.7845 12.0589 13.7692 10.6941 14.2875ZM14.6331 8.63816C14.6331 9.20828 14.5467 9.76112 14.4085 10.2967H12.5426C12.439 10.0721 12.2662 9.86478 12.0589 9.70929C12.0934 9.32921 12.1107 8.94913 12.1107 8.56906C12.1107 8.03349 12.0762 7.49792 12.0071 6.97963H14.3912C14.564 7.49792 14.6331 8.06804 14.6331 8.63816V8.63816ZM13.9075 5.75302H11.7998C11.5752 4.80282 11.2469 3.90445 10.7977 3.04064C12.1107 3.54165 13.2164 4.5264 13.9075 5.75302ZM10.9014 8.56906C10.9014 8.86275 10.8841 9.15645 10.8668 9.45015C10.3831 9.55381 9.98574 9.86478 9.7957 10.2967H6.46137C6.39226 9.7784 6.34044 9.24283 6.34044 8.72454C6.34044 8.39629 6.35771 8.06804 6.39227 7.73979C6.84145 7.65341 7.20425 7.35971 7.42884 6.97963H10.7977C10.8668 7.49792 10.9014 8.03349 10.9014 8.56906V8.56906ZM8.189 2.66055C8.34449 2.64328 8.49998 2.64328 8.63819 2.64328C8.81095 2.64328 8.98371 2.64328 9.15648 2.66055C9.77842 3.62803 10.2449 4.66461 10.5213 5.75302H7.51523C7.41157 5.45932 7.22153 5.20017 6.97966 5.01013C7.29063 4.18087 7.68799 3.40344 8.189 2.66055ZM6.54775 3.00608C6.25405 3.55892 5.99491 4.14632 5.78759 4.73371C5.25203 4.83737 4.82012 5.23473 4.64736 5.73574H3.38619C4.05996 4.50912 5.18292 3.52437 6.54775 3.00608ZM2.64331 8.63816C2.64331 8.06804 2.72969 7.49792 2.88517 6.97963H4.76829C4.87195 7.16967 5.02744 7.34244 5.2002 7.48065C5.16565 7.89528 5.13109 8.30991 5.13109 8.72454C5.13109 9.26011 5.16565 9.7784 5.23475 10.2967H2.88517C2.71241 9.76112 2.64331 9.20828 2.64331 8.63816ZM5.44207 11.506C5.66666 12.4389 5.99491 13.3546 6.44409 14.2184C5.1311 13.7001 4.04269 12.7326 3.36891 11.506H5.44207Z" fill="#000"/>
</svg>
