<svg width="15" height="15" viewBox="0 0 15 15" fill="none" xmlns="http://www.w3.org/2000/svg">
<path d="M7.2215 14.443C9.15641 14.443 10.9704 13.7001 12.3353 12.3352C13.7001 10.9704 14.443 9.15644 14.443 7.2215C14.443 5.28655 13.7001 3.47254 12.3353 2.10771C10.9704 0.74288 9.15641 0 7.2215 0C5.28655 0 3.47254 0.74288 2.10771 2.10771C0.74288 3.47254 0 5.28655 0 7.2215C0 9.15644 0.74288 10.9704 2.10771 12.3352C3.47254 13.7001 5.28655 14.443 7.2215 14.443ZM7.63613 13.2163C7.49792 13.2336 7.35971 13.2336 7.2215 13.2336C7.03146 13.2336 6.84142 13.2163 6.65138 13.1991C6.02943 12.2316 5.56297 11.195 5.28655 10.1066H8.34446C8.44811 10.3658 8.63811 10.6076 8.86271 10.7631C8.56905 11.6269 8.15442 12.4389 7.63613 13.2163ZM9.27741 12.8708C9.60561 12.2661 9.86481 11.6615 10.0721 11.0222C10.5731 10.9186 10.9704 10.5731 11.1605 10.1066H12.4908C11.7997 11.3678 10.6422 12.3525 9.27741 12.8708ZM13.2164 7.2215C13.2164 7.79162 13.13 8.34446 12.9918 8.88004H11.1259C11.0223 8.65544 10.8495 8.44812 10.6422 8.29263C10.6767 7.91255 10.694 7.53247 10.694 7.1524C10.694 6.61683 10.6595 6.08126 10.5904 5.56297H12.9745C13.1473 6.08126 13.2164 6.65138 13.2164 7.2215ZM12.4908 4.33636H10.3831C10.1585 3.38616 9.83021 2.48779 9.38101 1.62398C10.694 2.12499 11.7997 3.10974 12.4908 4.33636ZM9.48471 7.1524C9.48471 7.44609 9.46741 7.73979 9.45011 8.03349C8.96641 8.13715 8.56905 8.44812 8.37901 8.88004H5.04468C4.97557 8.36174 4.92375 7.82617 4.92375 7.30788C4.92375 6.97963 4.94102 6.65138 4.97558 6.32313C5.42476 6.23675 5.78756 5.94305 6.01215 5.56297H9.38101C9.45011 6.08126 9.48471 6.61683 9.48471 7.1524ZM6.77231 1.24389C6.9278 1.22662 7.08329 1.22662 7.2215 1.22662C7.39426 1.22662 7.56702 1.22662 7.73979 1.24389C8.36173 2.21137 8.82821 3.24795 9.10461 4.33636H6.09854C5.99488 4.04266 5.80484 3.78351 5.56297 3.59347C5.87394 2.76421 6.2713 1.98678 6.77231 1.24389ZM5.13106 1.58942C4.83736 2.14226 4.57822 2.72966 4.3709 3.31705C3.83534 3.42071 3.40343 3.81807 3.23067 4.31908H1.9695C2.64327 3.09246 3.76623 2.10771 5.13106 1.58942ZM1.22662 7.2215C1.22662 6.65138 1.313 6.08126 1.46848 5.56297H3.3516C3.45526 5.75301 3.61075 5.92578 3.78351 6.06399C3.74896 6.47862 3.7144 6.89325 3.7144 7.30788C3.7144 7.84345 3.74896 8.36174 3.81806 8.88004H1.46848C1.29572 8.34446 1.22662 7.79162 1.22662 7.2215ZM4.02538 10.0893C4.24997 11.0222 4.57822 11.9379 5.0274 12.8017C3.71441 12.2834 2.626 11.3159 1.95222 10.0893H4.02538Z" fill="black"/>
</svg>
